<svg height="20" width="29" xmlns="http://www.w3.org/2000/svg"><path fill="#479544" fill-rule="evenodd" d="M5.27 5.54L26.7 0 29 9.13 7.91 14.67 5.27 5.54"/><path fill="#72b343" fill-rule="evenodd" d="M6.59 5.33H29V16H6.59V5.33zm0 0"/><path fill="#fffffe" fill-rule="evenodd" d="M21.93 13.35c.36.24.62.42 1.06.51v.81h1.17v-.77c.76.01 1.3-.31 1.61-.59.43-.41.4-.73.41-1.3.01-.5-.35-1.59-2.01-1.86-.82-.17-1.42-.49-1.56-.6-.11-.06-.56-.91 1.14-1 1.15-.06 1.25.85 1.32 1.08h1.31c-.08-.72-.35-2.12-2.22-2.12v-.84h-1.17v.77c-.55.08-.9.27-1.21.53-.43.37-.63.79-.64 1.33-.01.59.3.97.77 1.3.33.26 1.08.6 2.37.85.74.15 1.03 1.58-.65 1.57-1.51-.01-1.25-1.08-1.31-1.32h-1.2c-.13.68.24 1.26.81 1.65"/><path fill="#f9ca4a" fill-rule="evenodd" d="M0 10.01C0 4.48 4.43 0 9.88 0c5.47 0 9.89 4.48 9.89 10.01 0 5.52-4.42 9.99-9.89 9.99C4.43 20 0 15.53 0 10.01"/><path fill="#910008" fill-rule="evenodd" d="M10.01 13.86c3.43-.05 4.94-1.3 5.53-1.79.2-.17.32-.01.26.32-.74 3.48-3.35 4.94-5.79 4.94s-5.24-1.46-6.04-4.94c-.07-.32.08-.49.28-.31.69.6 2.35 1.83 5.76 1.78"/><path fill="#544313" fill-rule="evenodd" d="M11.86 8a1.32 1.32 0 112.64 0 1.32 1.32 0 11-2.64 0M5.27 8a1.32 1.32 0 112.64 0 1.32 1.32 0 11-2.64 0"/></svg>