<svg style="background-color:#ffffff00" xmlns="http://www.w3.org/2000/svg" width="106" height="41"><path d="M75.243 12.86l1.472-2.457c1.004-1.685-.708-2.565-.708-2.565l-11.3-5.784a.572.572 0 01-.23-.676.557.557 0 01.598-.373L105 8.365l-29.193 5.372a.56.56 0 01-.295-.024.566.566 0 01-.323-.72.582.582 0 01.054-.133z" fill="#0164bf"/><path d="M70.2 5.925L63.848 7.09a.43.43 0 00-.337.289c-.086.248.03.51.257.595l11.121 3.279.557-.748c1.117-1.546-.931-2.372-.931-2.372L70.2 5.925z" fill="#ffa600"/><path d="M51.424 23.088c.158-1.767 1.248-2.463 2.932-2.463 1.56 0 2.87.136 2.87 2.062 0 1.832-2.526 1.736-5.238 2.148-2.747.38-5.49 1.264-5.49 4.957 0 3.348 2.434 4.896 5.49 4.896 1.963 0 4.07-.35 5.472-1.834.03.537 0 1.447 0 1.447h4.387V22.327c0-3.915-3.846-4.703-7.058-4.703-3.616 0-7.542 1.264-7.793 5.464h4.428zm5.954 4.842c0 .979-.123 3.759-3.586 3.759-1.437 0-2.867-.412-2.867-2.087 0-1.642 1.4-2.113 2.774-2.399 1.372-.252 2.93-.282 3.68-.948v1.675zm-40.472-9.94h-4.4L9.11 29.066l-.062.072-3.4-11.146H1L6.52 34.3h4.927l5.46-16.31zm5.751-4.077H18.19v2.719h4.468v-2.719zM18.19 34.301h4.468v-16.31H18.19V34.3zm10.56-11.213c.158-1.767 1.248-2.463 2.932-2.463 1.56 0 2.87.136 2.87 2.062 0 1.832-2.526 1.736-5.242 2.148-2.743.38-5.486 1.264-5.486 4.957 0 3.348 2.43 4.896 5.486 4.896 1.967 0 4.074-.689 5.476-2.173.032.536 0 1.786 0 1.786h4.373V22.072c0-3.918-3.846-4.448-7.057-4.448-3.617 0-7.529 1.264-7.78 5.464h4.428zm5.94 4.842c0 .979-.123 3.759-3.585 3.759-1.437 0-2.853-.412-2.853-2.087 0-1.642 1.385-2.113 2.76-2.399 1.371-.252 2.929-.282 3.678-.948v1.675zm10.657-14.017h-4.469v2.719h4.469v-2.719zM38.126 40s1.104-.007 1.572-.007c4.462 0 5.648-1.58 5.648-4.927V17.991h-4.469v16.926c0 1.23-.78 1.382-1.688 1.382-.371 0-1.062.01-1.062.01V40z" fill="#0164bf"/><path d="M96.083 27.166c.31-5.013-2.334-9.678-7.81-9.678-4.882 0-8.213 3.857-8.213 8.743 0 5.042 3.142 8.457 8.213 8.457 3.64 0 6.284-1.637 7.528-5.484h-3.889c-.278 1.01-1.712 1.974-3.482 1.974-2.457 0-3.826-1.175-3.953-4.012h11.606zm-11.606-2.72c.062-1.26.873-3.485 3.672-3.485 2.148 0 3.11 1.216 3.516 3.486h-7.188zm17.247-10.872h-4.469v17.19c0 3.246 2.365 3.877 5.07 3.877h2.493v-3.737h-1.362c-1.495 0-1.732-.33-1.732-1.842V21.39h3.094v-3.4h-3.094v-4.416zM63.566 34.3h4.469v-8.48c0-3.31.962-4.666 3.358-4.666 2.052 0 2.83 1.325 2.83 4.003V34.3h4.469V24.277c0-4.033-1.183-6.65-5.879-6.65-1.867 0-3.908.88-5.03 2.709h-.092V17.99h-4.125V34.3z" fill="#ffa600"/></svg>