<svg height="50" width="68" xmlns="http://www.w3.org/2000/svg"><path fill="#66bd38" fill-rule="evenodd" d="M31.51 19.3c-5.78 0-6.09-6.67-14.59-6.67-5.92 0-7.67 5.15-7.67 7.23 0 5.12 7.73 5.71 7.16 12.91-.33 4.16-3.04 17.18 11.51 17.18 8.46 0 10.63-8.42 16.75-11.4 8.44-3.56 20.34-8.24 20.34-24.15C64.65.02 49.83.02 49.1.02 34.31.02 43.65 19.3 31.51 19.3zm0 0"/><path fill="#f7c000" fill-rule="evenodd" d="M20.43 4.54C7.07 4.54 8.02 15.56 8.02 16.31c0 7.24-5.58 11.81-5.58 15.75 0 6.71 8.37 8.3 13.42 6.71 14.11-3.82 22.64 3.55 37.62 3.29C64.23 41.76 68 33.98 68 28.12c-.56-12.77-17.32-11.93-20.8-11.93-16.62 0-13.97-11.65-26.77-11.65zm0 0"/><path fill="#008746" fill-rule="evenodd" d="M16.01 38.73c-.05-2.41.29-4.64.4-5.96.57-7.2-7.16-7.79-7.16-12.91 0-2.08 1.75-7.23 7.67-7.23 8.5 0 8.81 6.67 14.59 6.67 3.95 0 5.63-2.04 6.6-4.79 2.24 1.01 5.12 1.68 9.09 1.68 2.51 0 11.92-.44 17.19 4.11-2.56 11.26-12.43 15.18-19.72 18.25-1.17.57-2.2 1.34-3.15 2.21-8.54-1.83-15.67-4.65-25.51-2.03zm0 0"/><path fill="#008746" fill-rule="evenodd" d="M33.9 11.13c.12.5.2 1.02.2 1.54 0 5.97-8.47 5.51-9.39 5.51-10.64 0 9.39 2.18 9.39 2.18l5.97-5.02s-6.73-6.41-6.17-4.21zm0 0"/><path fill="#df2b1e" fill-rule="evenodd" d="M8.02 16.31c0 3.73-1.48 6.76-2.92 9.35 2.9 2.88 6.96 5.62 11.95 7.69 5.31 2.19-1.59-17.17-4.56-19.09-1.45-.95-2.72-1.87-3.91-2.54-.72 2.28-.56 4.29-.56 4.59zm0 0"/><path fill="#e77312" fill-rule="evenodd" d="M8.58 11.72c-1.09-.61-2.11-1.01-3.16-1.01-4.04 0-5.41 3.96-5.41 5.4 0 2.84 1.81 6.29 5.09 9.55 1.44-2.59 2.92-5.62 2.92-9.35 0-.3-.16-2.31.56-4.59zm0 0"/><path fill="#1a408e" fill-rule="evenodd" d="M38.11 14.51c-.97 2.75-2.65 4.79-6.6 4.79-1.3 0-2.33-.34-3.23-.86-1.81-.06-3.27-.26-3.57-.26-5.66 0-9.47-2.11-12.48-4.09-2.22 1.68-2.98 4.4-2.98 5.77 0 5.12 7.73 5.71 7.16 12.91l-.03.3c5.45 2.35 12.05 3.9 19.51 3.9 5.66 0 23.46-1.44 23.46-15.7 0-1.34-.16-2.59-.46-3.77a.36.36 0 00-.07-.1c-4.73-1.43-9.87-1.21-11.62-1.21-3.97 0-6.85-.67-9.09-1.68zm0 0"/><path fill="#007440" fill-rule="evenodd" d="M42.02 2.93c6.18 1.83 14.76 6.28 16.86 14.49-4.75-1.45-9.92-1.23-11.68-1.23-4.29 0-7.3-.78-9.62-1.93-1.38-.69 2.09-12.02 4.44-11.33zm0 0"/><path fill="#029de1" fill-rule="evenodd" d="M41.92 2.91c-2.31-.68-4.27-.99-5.42-.99-4.68 0-4.66 3.27-4.66 3.82 0 1.36 1.85 3.64 2.2 6.14 1.15.98 2.45 1.89 4.07 2.63 1.29-3.65 1.34-8.54 3.81-11.6zm0 0"/><path fill="#f7c000" fill-rule="evenodd" d="M8.58 11.72c1.05-3.31 3.94-7.18 11.85-7.18 7.53 0 9.71 4.02 13.61 7.34.04.26.06.53.06.79 0 5.97-8.47 5.51-9.39 5.51-8.18 0-12.5-4.42-16.13-6.46zm0 0"/><path fill="#029de1" fill-rule="evenodd" d="M27.69 18.06c-2.75-1.93-4.61-5.43-10.77-5.43-2.01 0-3.54.59-4.69 1.46 3.01 1.98 6.82 4.09 12.48 4.09.32 0 1.53.06 2.98-.12zm0 0"/><path fill="#fff" fill-rule="evenodd" d="M21.64 29.34c1.47 0 2.25-.93 2.25-2.1 0-.98-.66-1.78-1.49-1.91.74-.15 1.34-.8 1.34-1.78 0-1.04-.76-1.98-2.23-1.98h-4.08v7.77h4.21zm-.49-4.66h-2.07v-1.69h2.07c.56 0 .9.36.9.85s-.34.84-.9.84zm.06 3.22h-2.13v-1.8h2.13c.65 0 1 .42 1 .91 0 .56-.38.89-1 .89zm10.09 1.44l-1.74-2.96c.83-.2 1.69-.93 1.69-2.31 0-1.44-.98-2.5-2.6-2.5h-3.62v7.77h1.65v-2.76h1.21l1.52 2.76h1.89zm-2.89-4.22h-1.73v-2.09h1.73c.66 0 1.16.39 1.16 1.04 0 .66-.5 1.05-1.16 1.05zm11.21 4.22l-2.99-7.77h-2.07l-2.99 7.77h1.88l.49-1.32h3.32l.47 1.32h1.89zm-2.82-2.77h-2.41l1.21-3.35 1.2 3.35zm6.1 2.91c2.09 0 3.1-1.07 3.1-2.5 0-2.89-4.45-2.07-4.45-3.3 0-.47.4-.78 1.11-.78.79 0 1.62.27 2.25.85l.92-1.21c-.77-.71-1.79-1.08-3.02-1.08-1.82 0-2.94 1.07-2.94 2.36 0 2.92 4.46 1.98 4.46 3.35 0 .44-.44.86-1.35.86-1.07 0-1.91-.47-2.46-1.05l-.89 1.26c.72.74 1.79 1.24 3.27 1.24zm5.76-.14v-7.77h-1.65v7.77h1.65zm6.36 0v-1.46h-3.28v-6.31h-1.65v7.77h4.93zm0 0"/></svg>