<svg height="41" width="64" xmlns="http://www.w3.org/2000/svg"><path fill="#2f4972" fill-rule="evenodd" d="M32.39 19.49c1.14-.98 2.24-2.32 2.96-3.72-.98-.31-1.97-.57-2.96-.57v4.29zm-.73-.05c-1.19-.93-2.29-2.27-3.01-3.67.98-.36 1.97-.57 3.01-.57v4.24zM32.39.41c1.14.93 2.24 2.28 2.96 3.67-.98.37-1.97.57-2.96.57V.41zm-.73 0c-1.19.93-2.29 2.28-3.01 3.67.98.32 1.97.57 3.01.57V.41zm.73 14.07v-4.19h4.42c0 1.65-.42 3.31-1.14 4.81-.99-.36-2.19-.62-3.28-.62zm9.62-4.19h-4.47c-.06 1.81-.42 3.46-1.15 5.12.94.41 1.82.98 2.65 1.65 1.77-1.81 2.86-4.24 2.97-6.77zm-3.54 7.24a9.517 9.517 0 00-2.44-1.5 12.68 12.68 0 01-3.02 3.82c2.03-.25 3.9-.98 5.46-2.32zm-6.81-3.05v-4.19h-4.47c.05 1.65.42 3.36 1.14 4.81 1.04-.36 2.19-.62 3.33-.62zm-9.67-4.19h4.47c.05 1.81.47 3.41 1.2 5.12-.99.41-1.87.98-2.7 1.65-1.77-1.81-2.86-4.19-2.97-6.77zm3.54 7.24c.73-.57 1.56-1.19 2.44-1.5.78 1.5 1.77 2.74 3.02 3.82-2.03-.25-3.9-.98-5.46-2.32zm6.86-12.15v4.18h4.42c0-1.7-.42-3.3-1.14-4.85-1.04.41-2.19.62-3.28.67zm9.62 4.18h-4.47c-.06-1.8-.47-3.46-1.15-5.11.94-.42 1.82-.99 2.65-1.66 1.88 1.92 2.86 4.24 2.97 6.77zm-3.54-7.29c-.73.63-1.56 1.19-2.44 1.56-.78-1.5-1.77-2.69-3.02-3.83 2.03.21 3.9.98 5.46 2.27zm-6.81 3.11v4.18h-4.47c.05-1.65.42-3.3 1.14-4.85 1.04.41 2.19.62 3.33.67zm-9.67 4.18h4.47c.05-1.86.47-3.46 1.2-5.11-.99-.42-1.87-.99-2.7-1.66-1.82 1.81-2.86 4.19-2.97 6.77zm3.54-7.29c.73.63 1.56 1.19 2.44 1.56.73-1.5 1.82-2.74 3.02-3.83-2.03.21-3.9.98-5.46 2.27zM0 13.24h19.96c.73 3.67 3.28 6.72 8.37 8.84-.57 1.75-2.54 3.36-4.57 3.36H12.89c-1.66 0-2.96-1.4-3.48-2.54h11.02c.68-.1.68-.62.05-.72H9.62c-1.41 0-2.65-1.19-3.38-2.48h12.58c.68-.1.68-.62 0-.73H6.13c-1.29 0-2.44-1.49-2.91-2.48h13.94c.67-.1.67-.72 0-.77H2.96c-1.14 0-2.18-1.19-2.96-2.48zm64 0H44.04c-.73 3.67-3.28 6.72-8.37 8.84.57 1.75 2.54 3.36 4.57 3.36h10.87c1.66 0 2.96-1.4 3.48-2.54H43.57c-.68-.1-.68-.62-.05-.72h10.86c1.41 0 2.65-1.19 3.38-2.48H45.18c-.68-.1-.68-.62 0-.73h12.68c1.3 0 2.45-1.49 2.92-2.48H46.84c-.67-.1-.67-.72 0-.77h14.2c1.14 0 2.18-1.19 2.96-2.48zM41.49 41l6.39-13.03h4.21L54.75 41h-4.01l-.15-1.55h-4.21L45.7 41h-4.21zm5.93-4.24h2.7l-.68-4.81-2.02 4.81zM33.12 41l1.51-9.77h-3.75l.63-3.31h11.43l-.62 3.31h-3.54L37.33 41h-4.21zm-17.16 0l6.45-13.03h4.21L29.22 41h-3.9l-.26-1.55H20.9L20.22 41h-4.26zm5.98-4.24h2.7l-.72-4.81-1.98 4.81zM9.1 41l2.6-13.03h4.26L13.36 41H9.1zm0 0"/></svg>