<svg height="32" width="52" xmlns="http://www.w3.org/2000/svg"><path fill="#131412" fill-rule="evenodd" d="M6.58 10.3v2.15c-1.9-1.16-3.99-2.12-6.58-2.33 2.66-.28 4.76-.07 6.58.18zm0-7.89v1.73c-1.3.05-2.61.26-3.97.68 1.23-.86 2.54-1.69 3.97-2.41zm0 27.03H4L2.59 32H.13l6.45-11.34v3.96l-1.75 2.9h1.75v1.92zm12.36-9.01v1.91h-1.75l-.57 2.75h2.32v2.02h-2.77l-.62 3.03h2.32c.42 0 .79-.03 1.07-.03v1.86c-.21.03-.44.03-.68.03h-5.51l2.46-11.57h3.73zm0-6.92v4.04c-1.17-.02-2.4-.18-3.71-.46-3.26-.75-5.77-2.9-8.65-4.64V10.3c3.35.47 5.86 1.07 9.59-.95.68 1.81 1.62 3.15 2.77 4.16zm0-13.35v8.23a7.47 7.47 0 00-.96-.6c-3.84-2.28-7.5-3.75-11.4-3.65V2.41C9.35 1.01 12.57 0 16.49 0c.83 0 1.64.05 2.45.16zM8.62 29.44H6.58v-1.92h1.75l-.67-4.69-1.08 1.79v-3.96l.16-.23h2.67L11.29 32H9.01l-.39-2.56zm10.32-11.89c3.53.11 6.64-.82 9.57-1.91-3.85.39-7.16-.05-9.57-2.13v4.04zm0 14.42v-1.86c.39-.05.71-.1.89-.16.31-.12.6-.33.78-.62.21-.28.32-.59.32-.9 0-.39-.16-.7-.45-.93-.28-.26-.75-.39-1.43-.39h-.11v-2.02c.58-.03 1-.08 1.28-.18.37-.11.63-.29.81-.55.19-.28.26-.57.26-.85 0-.31-.07-.55-.23-.73-.18-.2-.42-.31-.73-.39-.19-.02-.6-.05-1.28-.05h-.11v-1.91h.24c.89 0 1.49.02 1.83.07.57.08 1.07.24 1.46.47.39.23.71.54.91.96.21.39.32.83.32 1.29 0 .65-.19 1.22-.55 1.69-.37.46-.92.82-1.67 1.06.6.15 1.07.46 1.41.88.31.41.49.88.49 1.42 0 .67-.2 1.35-.6 1.97-.39.62-.94 1.06-1.64 1.35-.58.2-1.28.36-2.2.38zm11.21-11.31v3.96l-1.72 2.9h1.72v1.92h-2.59L26.18 32H23.7l6.45-11.34zm0-15.69v8.91c-5.54-.44-7.81-3.21-11.21-5.49V.16c3.95.44 7.71 1.99 11.21 4.81zm0 24.47v-1.92h1.75l-.65-4.69-1.1 1.79v-3.96l.16-.23h2.66L34.88 32h-2.27l-.39-2.56h-2.07zm17.14-9.01v.2L40.97 32h-2.56l-2.09-11.57h2.4l1.46 8.75 4.86-8.75h2.25zm0-16.62v1.13c-1.93.78-3.55 1.77-4.81 3.01-4.54 4.37-8.3 6.06-11.31 5.98-.34 0-.68-.03-1.02-.05V4.97c.92.73 1.8 1.53 2.67 2.41 2.24 2.33 7.65 3.16 7.52 0-.16-4.09-7-4.3-8.86-3.19 1.1-1.26 2.59-2.9 7.45-2.95 3.29-.02 5.07 1.82 8.36 2.57zm.13 16.62l-.13.2v-.2h.13zm0-16.6v1.09c-.05 0-.08.02-.13.02V3.81c.05.02.08.02.13.02zm1.41.23v.37c-.49.13-.96.31-1.41.49V3.83c.45.11.92.18 1.41.23zm-3.13 8.32v1.83c-.08-.31-.13-.62-.13-.93 0-.34.05-.62.13-.9zm3.99-8.26v.05c-.28.08-.57.15-.86.26v-.37c.29.03.58.06.86.06zm0 .05v-.05h.16c-.05.02-.1.02-.16.05zm-.9 7.45h-1.47v3.37H48v-1.4h.19c.2 0 .36.05.49.16l.11.1v-.8H48v-.88h.79v-.55zm0-1.52v.64c-.45 0-.89.11-1.28.32-.42.23-.74.54-.97.95-.21.42-.34.81-.34 1.27 0 .44.13.88.34 1.27.21.41.55.72.94.96.42.23.84.33 1.31.33v.63h-.03c-.55 0-1.1-.13-1.59-.42-.53-.28-.89-.67-1.18-1.19-.1-.21-.21-.41-.29-.65v-1.83c.08-.24.19-.47.32-.68.28-.52.65-.9 1.17-1.19.5-.26 1.02-.41 1.57-.41h.03zm0 3.75c.1.1.23.31.36.6l.29.54h.86l-.42-.7-.23-.41c-.11-.11-.18-.21-.24-.26-.05-.03-.13-.08-.23-.11.29-.05.49-.15.68-.33a.94.94 0 00.23-.6c0-.18-.05-.33-.13-.49a.854.854 0 00-.31-.34c-.13-.05-.32-.1-.55-.13h-.31v.55c.1 0 .21.02.26.02.1.06.15.11.23.19.05.05.08.15.08.23 0 .1-.03.15-.08.23-.08.08-.15.13-.23.18-.05 0-.13.03-.26.03v.8zm2.58-.46v1.78c-.26.36-.6.65-.99.88-.5.29-1.05.42-1.59.42v-.63c.44 0 .86-.1 1.28-.33.41-.24.73-.55.96-.96.21-.36.32-.75.34-1.16zm0-2v1.76c-.02-.39-.13-.77-.36-1.14-.24-.41-.55-.72-.94-.95a2.82 2.82 0 00-1.28-.32v-.64c.54 0 1.07.15 1.56.41.42.23.76.52 1.02.88zm0 3.78v-3.78c.06.11.13.21.19.31.28.52.44 1.04.44 1.58 0 .55-.16 1.09-.42 1.58-.08.13-.13.23-.21.31zm0 0"/></svg>